<svg width="103" height="102" viewBox="0 0 103 102" fill="none" xmlns="http://www.w3.org/2000/svg">
<path d="M37.2482 42.2481C36.3562 45.5683 37.5455 49.5326 40.5683 52.3572C43.5911 55.1817 47.6545 56.1233 50.8755 54.9835C51.7675 51.6634 50.5782 47.6991 47.5554 44.8745C44.5326 42.0499 40.4692 41.1084 37.2482 42.2481Z" stroke="#F4E3C7" stroke-width="2.05" stroke-linecap="round" stroke-linejoin="round"/>
<path d="M65.0933 42.2481C65.9853 45.5683 64.796 49.5326 61.7732 52.3572C58.7504 55.1817 54.687 56.1233 51.4659 54.9835C50.574 51.6634 51.7633 47.6991 54.7861 44.8745C57.8089 42.0499 61.8723 41.1084 65.0933 42.2481Z" stroke="#F4E3C7" stroke-width="2.05" stroke-linecap="round" stroke-linejoin="round"/>
<path d="M35.9586 60.7317C34.9675 64.3492 36.2559 68.6604 39.576 71.7823C42.8961 74.9042 47.3065 75.8952 50.8248 74.6564C51.8159 71.0389 50.5275 66.7277 47.2073 63.6058C43.8872 60.4839 39.4769 59.4929 35.9586 60.7317Z" stroke="#F4E3C7" stroke-width="2.05" stroke-linecap="round" stroke-linejoin="round"/>
<path d="M66.3783 60.7317C67.3693 64.3492 66.0809 68.6604 62.7608 71.7823C59.4407 74.9042 55.0304 75.8952 51.512 74.6564C50.521 71.0389 51.8094 66.7277 55.1295 63.6058C58.4496 60.4839 62.8599 59.4929 66.3783 60.7317Z" stroke="#F4E3C7" stroke-width="2.05" stroke-linecap="round" stroke-linejoin="round"/>
<path d="M51.1669 82.6344V63.6057V50.127V39.4729" stroke="#F4E3C7" stroke-width="2.05" stroke-linecap="round" stroke-linejoin="round"/>
<path d="M51.1651 23.1699C48.5387 24.5574 46.7052 27.6793 46.7052 31.2968C46.7052 34.9142 48.5387 38.0361 51.1651 39.4236C53.7914 38.0361 55.6249 34.9142 55.6249 31.2968C55.6249 27.6793 53.7914 24.5574 51.1651 23.1699Z" stroke="#F4E3C7" stroke-width="2.05" stroke-linecap="round" stroke-linejoin="round"/>
<path d="M51.1669 23.1696V19.0566" stroke="#F4E3C7" stroke-width="2.05" stroke-linecap="round" stroke-linejoin="round"/>
<path d="M51.0347 100.715C78.7279 100.634 101.237 78.2523 101.311 50.7238C101.385 23.1952 78.9945 0.944374 51.3014 1.02514C23.6082 1.10591 1.09875 23.4877 1.02512 51.0162C0.951481 78.5448 23.3415 100.796 51.0347 100.715Z" stroke="#F4E3C7" stroke-width="2.05" stroke-linecap="round" stroke-linejoin="round"/>
<path d="M30.0944 71.9814L15.743 86.2491" stroke="#F4E3C7" stroke-width="2.05" stroke-linecap="round" stroke-linejoin="round"/>
<path d="M86.5523 15.4906L67.9663 33.9706" stroke="#F4E3C7" stroke-width="2.05" stroke-linecap="round" stroke-linejoin="round"/>
</svg>
