<svg width="103" height="102" viewBox="0 0 103 102" fill="none" xmlns="http://www.w3.org/2000/svg">
<path d="M51.4418 100.5C79.1847 100.625 101.581 78.4539 101.466 50.978C101.351 23.5021 78.7676 1.12636 51.0248 1.00045C23.282 0.874534 0.885352 23.0461 1.00052 50.522C1.11568 77.9979 23.699 100.374 51.4418 100.5Z" stroke="#F4E3C7" stroke-width="2" stroke-linecap="round" stroke-linejoin="round"/>
<path d="M37.0546 64.9897L15.862 85.9692" stroke="#F4E3C7" stroke-width="2" stroke-linecap="round" stroke-linejoin="round"/>
<path d="M86.556 15.4821L65.3635 36.4617" stroke="#F4E3C7" stroke-width="2" stroke-linecap="round" stroke-linejoin="round"/>
<path d="M45.8292 31.1493C44.4901 30.1154 43.2987 28.9354 42.3541 27.6586C40.6145 25.4483 39.5158 22.8004 39.502 19.4722L55.075 19.5425" stroke="#F4E3C7" stroke-width="2" stroke-linecap="round" stroke-linejoin="round"/>
<path d="M56.6011 70.2109C60.2393 73.125 62.9861 76.6736 63.008 81.9782" stroke="#F4E3C7" stroke-width="2" stroke-linecap="round" stroke-linejoin="round"/>
<path d="M45.8085 62.3876C42.1712 59.4243 39.4256 55.9247 39.4036 50.6199C39.3393 35.0493 62.977 35.1549 62.9126 19.5844" stroke="#F4E3C7" stroke-width="2" stroke-linecap="round" stroke-linejoin="round"/>
<path d="M62.9529 50.7987L47.3855 50.75" stroke="#F4E3C7" stroke-width="2" stroke-linecap="round" stroke-linejoin="round"/>
<path d="M56.6043 39.0633C60.2414 41.9775 62.9873 45.5263 63.0092 50.8311C63.035 57.0691 59.2763 60.7853 54.7707 64.0069C52.5427 65.6178 50.066 67.1294 47.7884 68.7401C43.2331 71.9615 39.4744 75.6777 39.5002 81.9158L55.143 81.9857" stroke="#F4E3C7" stroke-width="2" stroke-linecap="round" stroke-linejoin="round"/>
</svg>
