<svg width="103" height="102" viewBox="0 0 103 102" fill="none" xmlns="http://www.w3.org/2000/svg">
<path d="M51.4242 100.52C79.1617 100.641 101.557 78.4614 101.447 50.9799C101.336 23.4984 78.7602 1.12187 51.0227 1.0006C23.2852 0.879319 0.889449 23.0592 1.00033 50.5407C1.11122 78.0222 23.6868 100.399 51.4242 100.52Z" stroke="#F4E3C7" stroke-width="2" stroke-linecap="round" stroke-linejoin="round"/>
<path d="M29.9378 72.1195L15.8989 86.0208" stroke="#F4E3C7" stroke-width="2" stroke-linecap="round" stroke-linejoin="round"/>
<path d="M86.5526 15.4987L72.5632 29.3511" stroke="#F4E3C7" stroke-width="2" stroke-linecap="round" stroke-linejoin="round"/>
<path d="M46.4996 48.9447C40.2517 41.7265 30.3841 37.5464 25.1052 36.2429C36.1058 50.0325 28.4466 50.6889 33.2686 62.1367C34.9766 66.2322 38.0261 69.8902 41.2219 72.8101C44.9168 76.1261 48.9558 78.4093 51.6448 79.012" stroke="#F4E3C7" stroke-width="2" stroke-linecap="round" stroke-linejoin="round"/>
<path d="M39.7536 33.6616C39.9476 32.5819 40.1418 31.5513 40.3856 30.5209C41.2147 27.0864 42.2935 24.095 43.5732 21.7429C45.6399 17.8226 48.3086 15.624 51.1845 15.6365C54.0604 15.6491 56.8964 18.0681 59.0452 22.2033C60.2945 24.6154 61.3476 27.567 62.1548 31.0087C62.3567 31.8937 62.5588 32.8277 62.7113 33.7616" stroke="#F4E3C7" stroke-width="2" stroke-linecap="round" stroke-linejoin="round"/>
<path d="M55.6158 38.5034C55.5062 35.9882 55.3474 33.67 55.1891 31.4997C54.8757 27.9481 54.5142 24.8895 54.0552 22.4221C53.2896 18.1783 52.2811 15.6593 51.1824 15.6547C50.0837 15.6501 49.1443 18.0623 48.4113 22.2012C47.9714 24.6648 47.5839 27.7697 47.2981 31.3188C47.1569 33.5371 47.0164 35.9527 46.9265 38.5164" stroke="#F4E3C7" stroke-width="2" stroke-linecap="round" stroke-linejoin="round"/>
<path d="M41.2415 27.5886C43.1693 27.8261 45.196 28.017 47.3213 28.1614C47.4202 28.1616 47.519 28.1618 47.6179 28.162C49.6938 28.3063 51.9178 28.3574 54.1417 28.315C54.3888 28.3155 54.6359 28.316 54.883 28.3165L55.1795 28.3171C57.3045 28.2745 59.3799 28.1384 61.3563 27.9553" stroke="#F4E3C7" stroke-width="2" stroke-linecap="round" stroke-linejoin="round"/>
<path d="M77.218 36.3675C70.8093 37.9154 57.5551 43.6684 52.4747 54.0366C48.3317 62.5375 47.9679 71.0057 49.7802 76.5287C50.4346 78.5013 51.3343 79.6378 53.1701 78.6117C58.2809 75.827 66.3601 69.2636 69.2657 62.1853C73.944 50.7814 66.2831 50.0587 77.218 36.3675Z" stroke="#F4E3C7" stroke-width="2" stroke-linecap="round" stroke-linejoin="round"/>
<path d="M54.6382 77.866L54.6658 84.7042C54.6684 85.3437 54.124 85.8825 53.4781 85.8796L49.0063 85.8601C48.3604 85.8573 47.8117 85.3138 47.8091 84.6742L47.7805 77.5901" stroke="#F4E3C7" stroke-width="2" stroke-linecap="round" stroke-linejoin="round"/>
</svg>
