<svg width="102" height="102" viewBox="0 0 102 102" fill="none" xmlns="http://www.w3.org/2000/svg">
<path d="M51 101C78.6142 101 101 78.6142 101 51C101 23.3858 78.6142 1 51 1C23.3858 1 1 23.3858 1 51C1 78.6142 23.3858 101 51 101Z" stroke="#F4E3C7" stroke-width="2" stroke-linecap="round" stroke-linejoin="round"/>
<path d="M27.9581 74.0466L15.6436 86.3612" stroke="#F4E3C7" stroke-width="2" stroke-linecap="round" stroke-linejoin="round"/>
<path d="M86.3658 15.6392L67.5725 34.383" stroke="#F4E3C7" stroke-width="2" stroke-linecap="round" stroke-linejoin="round"/>
<path d="M71.1849 58.1714C71.1849 69.299 62.1345 78.3494 51.0069 78.3494C39.8793 78.3494 30.8289 69.299 30.8289 58.1714C30.8289 49.665 39.1375 41.1585 44.5776 34.482C49.3254 28.6956 51.0069 23.6511 51.0069 23.6511C51.0069 23.6511 52.8368 28.5967 57.5351 34.482C62.8763 41.208 71.1849 49.4671 71.1849 58.1714Z" stroke="#F4E3C7" stroke-width="2" stroke-linecap="round" stroke-linejoin="round"/>
<path d="M47.0007 69.002C43.3904 67.4689 40.6209 64.4026 39.4834 60.5945" stroke="#F4E3C7" stroke-width="2" stroke-linecap="round" stroke-linejoin="round"/>
</svg>
